<?xml version="1.0" encoding="utf-8"?>
<!-- Generator: Adobe Illustrator 16.0.0, SVG Export Plug-In . SVG Version: 6.00 Build 0)  -->
<!DOCTYPE svg PUBLIC "-//W3C//DTD SVG 1.1//EN" "http://www.w3.org/Graphics/SVG/1.1/DTD/svg11.dtd">
<svg version="1.1" id="Layer_1" xmlns="http://www.w3.org/2000/svg" xmlns:xlink="http://www.w3.org/1999/xlink" x="0px" y="0px"
	 width="512px" height="512px" viewBox="0 0 512 512" enable-background="new 0 0 512 512" xml:space="preserve">
<g opacity="0.3">
	<g>
		<path fill="#2D2D2D" stroke="#353535" stroke-width="5.467" stroke-miterlimit="10" d="M207.086,181.765v-67.991
			c0-30.889,24.781-56.251,55.222-56.552c14.991-0.112,29.101,5.601,39.771,16.166c10.686,10.565,16.548,24.633,16.548,39.606
			v68.282H169.137c-13.649,0-24.75,11.116-24.75,24.763v131.37c0,2.726,2.218,4.948,4.947,4.948h227.05
			c2.738,0,4.962-2.223,4.962-4.948V206.03c0-13.642-11.117-24.754-24.768-24.754h-1.646v-68.282c0-24.659-9.66-47.838-27.19-65.267
			c-17.389-17.302-40.417-26.806-64.874-26.806c-0.177,0-0.364,0-0.54,0c-50.477,0.288-91.536,42.024-91.536,93.041v67.802"/>
	</g>
</g>
<g>
	<g>
		<path fill="#333333" d="M44.595,422.348c0-0.924,0.301-1.705,0.901-2.343c0.602-0.638,1.421-0.957,2.46-0.957
			c1.038,0,1.865,0.319,2.479,0.957c0.615,0.638,0.923,1.419,0.923,2.343c0,0.923-0.308,1.696-0.923,2.321
			c-0.614,0.625-1.441,0.937-2.479,0.937c-1.039,0-1.858-0.312-2.46-0.937C44.896,424.044,44.595,423.271,44.595,422.348z
			 M50.374,479.507h-4.919v-44.351h4.919V479.507z"/>
		<path fill="#333333" d="M63.827,456.922c0-6.887,1.537-12.372,4.611-16.457s7.248-6.128,12.522-6.128
			c5.984,0,10.548,2.363,13.69,7.091v-24.881h4.878v62.96h-4.591l-0.205-5.902c-3.143,4.481-7.762,6.722-13.854,6.722
			c-5.11,0-9.229-2.056-12.358-6.168c-3.129-4.113-4.693-9.667-4.693-16.663V456.922z M68.787,457.782
			c0,5.657,1.134,10.118,3.402,13.383c2.268,3.267,5.465,4.898,9.591,4.898c6.039,0,10.33-2.664,12.871-7.992v-20.823
			c-2.541-5.766-6.805-8.648-12.789-8.648c-4.126,0-7.337,1.619-9.632,4.857C69.935,446.695,68.787,451.47,68.787,457.782z"/>
		<path fill="#333333" d="M131.714,480.326c-3.771,0-7.181-0.928-10.228-2.787c-3.047-1.857-5.417-4.447-7.111-7.768
			c-1.694-3.319-2.541-7.043-2.541-11.169v-1.763c0-4.263,0.826-8.102,2.479-11.519c1.653-3.415,3.955-6.1,6.906-8.054
			s6.148-2.931,9.592-2.931c5.383,0,9.653,1.838,12.81,5.513c3.156,3.676,4.734,8.697,4.734,15.063v2.746h-31.645v0.943
			c0,5.028,1.441,9.216,4.325,12.563c2.882,3.348,6.51,5.021,10.882,5.021c2.624,0,4.939-0.478,6.948-1.435
			c2.009-0.956,3.832-2.486,5.472-4.591l3.074,2.337C143.806,477.718,138.572,480.326,131.714,480.326z M130.812,438.518
			c-3.688,0-6.798,1.353-9.325,4.058s-4.064,6.34-4.611,10.903h26.603v-0.533c-0.138-4.263-1.353-7.732-3.648-10.411
			C137.534,439.856,134.527,438.518,130.812,438.518z"/>
		<path fill="#333333" d="M164.678,435.156l0.164,7.583c1.666-2.732,3.743-4.816,6.23-6.251c2.485-1.435,5.232-2.151,8.238-2.151
			c4.755,0,8.293,1.339,10.616,4.017c2.322,2.679,3.498,6.695,3.525,12.051v29.103h-4.878v-29.144
			c-0.027-3.962-0.868-6.913-2.521-8.854c-1.654-1.94-4.298-2.91-7.932-2.91c-3.033,0-5.718,0.949-8.055,2.849
			c-2.336,1.899-4.064,4.462-5.185,7.686v30.373h-4.878v-44.351H164.678z"/>
		<path fill="#333333" d="M215.84,423.803v11.354h9.182v4.017h-9.182v29.587c0,2.462,0.443,4.295,1.332,5.498
			c0.888,1.204,2.37,1.806,4.447,1.806c0.819,0,2.145-0.136,3.976-0.409l0.205,3.981c-1.284,0.46-3.033,0.69-5.246,0.69
			c-3.361,0-5.808-0.977-7.337-2.931c-1.531-1.953-2.296-4.829-2.296-8.628v-29.595h-8.157v-4.017h8.157v-11.354H215.84z"/>
		<path fill="#333333" d="M236.999,422.348c0-0.924,0.301-1.705,0.901-2.343c0.602-0.638,1.421-0.957,2.46-0.957
			c1.038,0,1.865,0.319,2.479,0.957c0.615,0.638,0.923,1.419,0.923,2.343c0,0.923-0.308,1.696-0.923,2.321
			c-0.614,0.625-1.441,0.937-2.479,0.937c-1.039,0-1.858-0.312-2.46-0.937C237.3,424.044,236.999,423.271,236.999,422.348z
			 M242.778,479.507h-4.919v-44.351h4.919V479.507z"/>
		<path fill="#333333" d="M265.822,423.803v11.354h9.182v4.017h-9.182v29.587c0,2.462,0.443,4.295,1.332,5.498
			c0.888,1.204,2.37,1.806,4.447,1.806c0.819,0,2.145-0.136,3.976-0.409l0.205,3.981c-1.284,0.46-3.033,0.69-5.246,0.69
			c-3.361,0-5.808-0.977-7.337-2.931c-1.531-1.953-2.296-4.829-2.296-8.628v-29.595h-8.157v-4.017h8.157v-11.354H265.822z"/>
		<path fill="#333333" d="M301.328,472.457l12.952-37.301h5.288l-18.938,51.893l-0.983,2.296c-2.433,5.383-6.189,8.074-11.272,8.074
			c-1.175,0-2.433-0.191-3.771-0.573l-0.041-4.059l2.541,0.246c2.404,0,4.352-0.594,5.841-1.783
			c1.489-1.188,2.753-3.231,3.792-6.128l2.172-5.984l-16.724-43.981h5.37L301.328,472.457z"/>
	</g>
	<g>
		<path fill="#4292D3" d="M368.357,456.67c0,6.75-1.545,12.188-4.632,16.314c-3.089,4.126-7.27,6.188-12.543,6.188
			c-5.384,0-9.619-1.707-12.707-5.123v21.355h-7.583v-61.402h6.928l0.368,4.919c3.088-3.825,7.379-5.738,12.871-5.738
			c5.328,0,9.543,2.008,12.646,6.025c3.101,4.017,4.652,9.605,4.652,16.765V456.67z M360.774,455.81
			c0-5.001-1.066-8.949-3.197-11.846c-2.132-2.896-5.056-4.346-8.772-4.346c-4.591,0-8.033,2.036-10.329,6.107v21.192
			c2.269,4.044,5.738,6.066,10.411,6.066c3.635,0,6.524-1.441,8.67-4.325C359.701,465.776,360.774,461.493,360.774,455.81z"/>
		<path fill="#4292D3" d="M386.229,478.354h-7.583v-62.96h7.583V478.354z"/>
		<path fill="#4292D3" d="M425.742,473.968c-2.951,3.471-7.282,5.205-12.993,5.205c-4.729,0-8.328-1.373-10.801-4.119
			c-2.474-2.746-3.724-6.811-3.751-12.194v-28.856h7.583v28.651c0,6.723,2.732,10.084,8.198,10.084
			c5.793,0,9.646-2.158,11.559-6.477v-32.259h7.583v44.351h-7.214L425.742,473.968z"/>
		<path fill="#4292D3" d="M470.461,466.59c0-2.05-0.772-3.642-2.315-4.775c-1.544-1.134-4.236-2.111-8.075-2.931
			c-3.84-0.82-6.886-1.804-9.141-2.951c-2.254-1.148-3.922-2.514-5.001-4.1c-1.079-1.584-1.619-3.47-1.619-5.656
			c0-3.634,1.537-6.708,4.611-9.223c3.074-2.514,7.003-3.771,11.785-3.771c5.027,0,9.105,1.298,12.235,3.894
			c3.128,2.597,4.693,5.917,4.693,9.961h-7.624c0-2.077-0.882-3.867-2.645-5.37c-1.763-1.502-3.982-2.254-6.66-2.254
			c-2.761,0-4.919,0.601-6.477,1.803c-1.558,1.203-2.337,2.774-2.337,4.714c0,1.831,0.725,3.212,2.173,4.141s4.064,1.817,7.85,2.664
			c3.784,0.847,6.852,1.858,9.202,3.033c2.35,1.175,4.092,2.589,5.226,4.242s1.701,3.669,1.701,6.046c0,3.963-1.585,7.14-4.755,9.53
			c-3.17,2.392-7.282,3.586-12.337,3.586c-3.553,0-6.696-0.629-9.428-1.885c-2.733-1.257-4.872-3.013-6.415-5.268
			c-1.544-2.254-2.316-4.693-2.316-7.316h7.583c0.137,2.541,1.154,4.557,3.054,6.046s4.407,2.234,7.522,2.234
			c2.869,0,5.171-0.581,6.906-1.742S470.461,468.53,470.461,466.59z"/>
	</g>
</g>
<g>
	<path fill="#303030" d="M49.185,397.511h14.599v2.111H46.667v-29.561h2.518V397.511z"/>
	<path fill="#303030" d="M66.666,388.313c0-2.111,0.409-4.013,1.229-5.705c0.818-1.692,1.976-3.008,3.472-3.949
		c1.495-0.94,3.19-1.411,5.086-1.411c2.924,0,5.292,1.025,7.106,3.076c1.813,2.051,2.72,4.768,2.72,8.151v0.508
		c0,2.125-0.409,4.037-1.228,5.735c-0.819,1.699-1.974,3.009-3.462,3.929c-1.489,0.921-3.188,1.381-5.096,1.381
		c-2.911,0-5.276-1.025-7.097-3.076s-2.73-4.768-2.73-8.151V388.313z M69.103,388.983c0,2.626,0.68,4.781,2.04,6.467
		c1.36,1.685,3.144,2.527,5.351,2.527c2.192,0,3.969-0.843,5.329-2.527c1.36-1.686,2.04-3.908,2.04-6.67v-0.467
		c0-1.679-0.312-3.215-0.934-4.608c-0.623-1.395-1.496-2.474-2.619-3.239c-1.123-0.764-2.409-1.146-3.857-1.146
		c-2.166,0-3.932,0.85-5.299,2.548c-1.367,1.699-2.051,3.922-2.051,6.67V388.983z"/>
	<path fill="#303030" d="M99.414,397.978c1.692,0,3.109-0.478,4.254-1.432c1.144-0.954,1.763-2.188,1.857-3.705h2.335
		c-0.067,1.34-0.487,2.562-1.259,3.665s-1.797,1.966-3.076,2.588c-1.278,0.623-2.649,0.935-4.111,0.935
		c-2.883,0-5.167-1.002-6.852-3.005c-1.686-2.003-2.528-4.696-2.528-8.081v-0.73c0-2.165,0.379-4.081,1.138-5.746
		c0.758-1.664,1.844-2.95,3.258-3.857c1.415-0.906,3.069-1.36,4.965-1.36c2.408,0,4.396,0.718,5.958,2.152
		c1.563,1.435,2.399,3.323,2.508,5.664h-2.335c-0.108-1.719-0.728-3.105-1.857-4.162c-1.131-1.056-2.555-1.583-4.273-1.583
		c-2.193,0-3.896,0.792-5.106,2.375c-1.212,1.584-1.817,3.804-1.817,6.659v0.711c0,2.802,0.605,4.988,1.817,6.558
		C95.499,397.192,97.208,397.978,99.414,397.978z"/>
	<path fill="#303030" d="M117.931,388.557l-2.781,2.681v8.385h-2.437v-31.186h2.437v19.958l2.294-2.477l8.406-8.264h3.065
		l-9.319,9.258l10.131,12.71h-2.903L117.931,388.557z"/>
	<path fill="#303030" d="M141.177,400.028c-1.867,0-3.557-0.46-5.065-1.381c-1.509-0.92-2.684-2.203-3.522-3.848
		s-1.259-3.488-1.259-5.532v-0.873c0-2.111,0.409-4.013,1.229-5.705c0.818-1.691,1.959-3.021,3.421-3.989s3.046-1.452,4.751-1.452
		c2.666,0,4.781,0.911,6.345,2.731s2.345,4.308,2.345,7.461v1.36h-15.674v0.467c0,2.49,0.714,4.565,2.143,6.223
		c1.428,1.658,3.225,2.487,5.39,2.487c1.3,0,2.447-0.236,3.441-0.711c0.995-0.474,1.898-1.231,2.711-2.273l1.522,1.157
		C147.166,398.735,144.574,400.028,141.177,400.028z M140.73,379.319c-1.827,0-3.367,0.67-4.619,2.01s-2.014,3.141-2.284,5.4h13.177
		v-0.264c-0.067-2.111-0.67-3.83-1.807-5.157C144.061,379.982,142.571,379.319,140.73,379.319z"/>
	<path fill="#303030" d="M153.176,388.436c0-3.411,0.762-6.128,2.284-8.152c1.522-2.023,3.591-3.035,6.203-3.035
		c2.964,0,5.225,1.171,6.781,3.513v-12.324h2.416v31.186h-2.274l-0.102-2.924c-1.557,2.22-3.844,3.33-6.862,3.33
		c-2.531,0-4.571-1.019-6.121-3.056s-2.325-4.788-2.325-8.253V388.436z M155.633,388.861c0,2.802,0.562,5.012,1.686,6.629
		c1.123,1.618,2.706,2.427,4.75,2.427c2.991,0,5.117-1.32,6.376-3.959v-10.314c-1.259-2.855-3.371-4.284-6.335-4.284
		c-2.044,0-3.634,0.803-4.771,2.406C156.201,383.369,155.633,385.735,155.633,388.861z"/>
	<path fill="#303030" d="M205.051,388.861c0,3.425-0.759,6.142-2.274,8.151c-1.516,2.011-3.553,3.016-6.111,3.016
		c-3.059,0-5.373-1.137-6.943-3.411l-0.102,3.005h-2.274v-31.186h2.417v12.405c1.543-2.396,3.83-3.594,6.862-3.594
		c2.599,0,4.652,0.992,6.161,2.975c1.51,1.983,2.265,4.74,2.265,8.273V388.861z M202.614,388.436c0-2.896-0.563-5.134-1.686-6.711
		c-1.124-1.576-2.707-2.365-4.751-2.365c-1.557,0-2.876,0.383-3.959,1.147s-1.901,1.885-2.456,3.36v9.907
		c1.218,2.762,3.37,4.143,6.456,4.143c2.003,0,3.569-0.792,4.7-2.376C202.049,393.958,202.614,391.589,202.614,388.436z"/>
	<path fill="#303030" d="M217.15,396.13l6.416-18.476h2.619l-9.38,25.703l-0.487,1.138c-1.205,2.666-3.065,3.999-5.583,3.999
		c-0.582,0-1.205-0.095-1.868-0.284l-0.021-2.01l1.259,0.122c1.191,0,2.155-0.295,2.894-0.884c0.737-0.589,1.363-1.601,1.878-3.035
		l1.076-2.964l-8.284-21.785h2.66L217.15,396.13z"/>
</g>
</svg>
