<?xml version="1.0" encoding="utf-8"?>
<!-- Generator: Adobe Illustrator 16.0.0, SVG Export Plug-In . SVG Version: 6.00 Build 0)  -->
<!DOCTYPE svg PUBLIC "-//W3C//DTD SVG 1.1//EN" "http://www.w3.org/Graphics/SVG/1.1/DTD/svg11.dtd">
<svg version="1.1" id="Layer_1" xmlns="http://www.w3.org/2000/svg" xmlns:xlink="http://www.w3.org/1999/xlink" x="0px" y="0px"
	 width="128px" height="128px" viewBox="0 0 128 128" style="enable-background:new 0 0 128 128;" xml:space="preserve">
<g>
	<rect style="fill:#444444;" width="128" height="128"/>
	<g>
		<g>
			<g>
				<path style="fill:#FFFFFF;" d="M22.386,44.303V38.49h4.291v5.813H22.386z M22.386,89.979V52.054h4.325v37.924H22.386z"/>
				<path style="fill:#FFFFFF;" d="M53.432,90.774c-5.052,0-8.991-1.753-11.817-5.26c-2.826-3.506-4.239-8.351-4.239-14.533
					c0-5.813,1.458-10.536,4.377-14.169c2.918-3.633,6.765-5.45,11.54-5.45c2.353,0,4.706,0.508,7.059,1.522
					c2.353,1.016,4.141,2.595,5.363,4.741v-1.142V37.348l4.152-0.381v53.011h-3.563l-0.622-5.709
					c-1.315,2.145-3.098,3.766-5.347,4.861C58.085,90.227,55.785,90.774,53.432,90.774z M53.328,87.384
					c2.146,0,4.025-0.393,5.64-1.177s2.907-1.892,3.875-3.322c0.969-1.43,1.69-3.073,2.163-4.931
					c0.473-1.856,0.709-3.915,0.709-6.177c0-11.28-4.152-16.92-12.456-16.92c-1.961,0-3.691,0.467-5.19,1.401
					c-1.5,0.934-2.682,2.192-3.547,3.771c-0.865,1.581-1.505,3.299-1.92,5.156c-0.416,1.857-0.623,3.813-0.623,5.865
					c0,1.777,0.126,3.443,0.381,5c0.253,1.558,0.668,3.04,1.246,4.446c0.576,1.407,1.292,2.613,2.146,3.616
					c0.853,1.004,1.926,1.8,3.218,2.388C50.259,87.089,51.713,87.384,53.328,87.384z"/>
			</g>
		</g>
		<g>
			<g>
				<line style="fill:none;stroke:#4292D3;stroke-width:4.252;stroke-miterlimit:10;" x1="96.4" y1="45.25" x2="96.4" y2="82.75"/>
				<line style="fill:none;stroke:#4292D3;stroke-width:4.252;stroke-miterlimit:10;" x1="115.15" y1="64" x2="77.65" y2="64"/>
			</g>
		</g>
	</g>
</g>
<g>
</g>
<g>
</g>
<g>
</g>
<g>
</g>
<g>
</g>
</svg>
